<svg width="480" height="480" viewBox="0 0 480 480" fill="none" xmlns="http://www.w3.org/2000/svg">
<rect width="480" height="480" fill="#1E1E1E"/>
<rect width="480" height="480" fill="white"/>
<path d="M368.164 381.916C368.164 383.896 356.313 376.509 351.442 380.619C346.57 384.578 350.266 389.193 346.765 389.193L289.38 396.988C272.176 365.779 249.188 330.231 220.415 290.344C191.794 250.458 165.685 217.041 142.087 190.095C144.067 173.805 147.111 144.118 151.222 101.034C151.679 98.9027 154.267 95.9339 158.986 92.1279C163.858 88.1697 167.892 86.1906 171.089 86.1906H230.691C250.939 121.815 272.557 155.536 295.545 187.354C318.686 219.172 345.632 253.883 376.384 291.486C372.426 328.024 369.686 358.167 368.164 381.916Z" fill="#111F51"/>
<path d="M104.17 402.186C77.9846 402.226 43.4248 401.365 0.490502 399.604C20.9165 316.907 35.6108 219.374 44.5734 107.007C44.5706 105.18 47.0021 102.36 51.868 98.5468C56.886 94.7331 61.1456 92.6714 64.6467 92.3615C110.008 88.4862 144.716 86.5301 168.77 86.4934C147.445 179.088 132.603 279.209 124.242 386.855C124.245 388.986 121.814 392.111 116.949 396.229C112.083 400.195 107.824 402.18 104.17 402.186Z" fill="#3594BD"/>
<path d="M326.235 349.983C314.85 371.77 302.467 387.47 289.084 397.082C314.356 397.043 337.567 393.734 358.719 387.156C380.022 380.425 397.973 371.415 412.57 360.127C427.32 348.686 439.783 335.346 449.96 320.107C460.289 304.867 467.8 288.718 472.494 271.66C477.339 254.602 479.747 236.329 479.718 216.843C479.688 197.356 476.386 178.788 469.813 161.138C463.392 143.336 454.691 128.429 443.712 116.419C432.732 104.409 419.777 95.0661 404.847 88.3903C390.07 81.5621 374.46 78.1606 358.018 78.1857C354.517 78.1911 350.333 80.2527 345.468 84.3706C340.602 88.4885 338.171 91.6893 338.175 93.9729C354.654 118.611 362.926 152.015 362.991 194.185C363.032 220.827 359.724 248.007 353.068 275.725C346.564 303.442 337.62 328.195 326.235 349.983Z" fill="#3594BD"/>
</svg>
